<svg width="914" height="400" fill="none" xmlns="http://www.w3.org/2000/svg">
  <path fill="#fff" d="M0 0h914v400H0z"/>
  <path d="M429.602 207.688c-1.914 1.102-4.293 1.654-7.137 1.654-3.154 0-5.642-.871-7.465-2.612-1.814-1.75-2.721-4.156-2.721-7.218 0-3.081.994-5.592 2.981-7.533 1.987-1.942 4.63-2.913 7.929-2.913 2.079 0 3.911.288 5.497.862v4.142c-1.513-.875-3.364-1.312-5.551-1.312-1.832 0-3.327.597-4.485 1.791-1.148 1.185-1.722 2.771-1.722 4.758 0 2.014.515 3.573 1.545 4.675 1.039 1.103 2.438 1.655 4.197 1.655 1.057 0 1.896-.151 2.516-.451v-3.829h-3.924v-3.527h8.34v9.858zm9.502 1.654c-2.333 0-4.17-.652-5.51-1.955-1.33-1.313-1.996-3.09-1.996-5.332 0-2.315.693-4.125 2.078-5.428 1.386-1.313 3.259-1.969 5.619-1.969 2.325 0 4.148.656 5.469 1.969 1.322 1.303 1.983 3.031 1.983 5.182 0 2.324-.684 4.16-2.051 5.509-1.358 1.349-3.222 2.024-5.592 2.024zm.109-11.375c-1.02 0-1.813.351-2.378 1.053-.566.701-.848 1.695-.848 2.98 0 2.689 1.085 4.033 3.254 4.033 2.069 0 3.103-1.381 3.103-4.142 0-2.616-1.043-3.924-3.131-3.924zm15.679 3.404V209h-1.818v-19.605h5.059c1.03 0 1.941.127 2.734.382.793.256 1.463.625 2.01 1.108a4.652 4.652 0 011.244 1.777c.282.702.424 1.504.424 2.406 0 .912-.16 1.755-.479 2.53a5.732 5.732 0 01-1.381 1.996c-.592.556-1.317.993-2.174 1.312-.856.31-1.827.465-2.912.465h-2.707zm0-10.309v8.641h2.598c1.686 0 2.967-.392 3.842-1.176.875-.784 1.312-1.891 1.312-3.322 0-2.762-1.613-4.143-4.84-4.143h-2.912zM474.84 209v-2.488h-.055c-.455.893-1.08 1.586-1.873 2.078-.783.492-1.672.738-2.666.738a5.532 5.532 0 01-1.832-.287 4.038 4.038 0 01-1.38-.807 3.756 3.756 0 01-.875-1.271 4.265 4.265 0 01-.301-1.627c0-1.267.392-2.274 1.176-3.022.783-.756 1.968-1.248 3.554-1.476l4.252-.615c0-2.689-1.043-4.034-3.131-4.034-1.631 0-3.144.597-4.539 1.791v-1.914a5.7 5.7 0 01.985-.56 8.263 8.263 0 011.175-.438c.411-.127.83-.223 1.258-.287a7.734 7.734 0 011.272-.109c1.558 0 2.734.437 3.527 1.312.802.875 1.203 2.179 1.203 3.911V209h-1.75zm-3.609-6.795c-.629.091-1.167.205-1.614.342-.446.137-.815.323-1.107.56a2.01 2.01 0 00-.643.862c-.136.337-.205.756-.205 1.258 0 .373.064.72.192 1.039.137.319.328.597.574.834.255.227.561.405.916.533.365.127.775.191 1.231.191.619 0 1.189-.118 1.709-.355a3.981 3.981 0 001.339-.985 4.41 4.41 0 00.889-1.504 5.36 5.36 0 00.328-1.9v-1.381l-3.609.506zm18.321 6.166c-1.039.629-2.297.953-3.774.971-1.002.009-1.905-.164-2.707-.52a5.966 5.966 0 01-2.051-1.476 6.67 6.67 0 01-1.298-2.242 8.525 8.525 0 01-.452-2.817c0-1.048.16-2.032.479-2.953a7.002 7.002 0 011.394-2.42 6.56 6.56 0 012.243-1.641c.884-.401 1.895-.601 3.035-.601 1.157 0 2.215.223 3.172.67v1.859c-1.021-.674-2.124-1.012-3.309-1.012-.829 0-1.568.16-2.215.479a4.718 4.718 0 00-1.64 1.285 5.822 5.822 0 00-1.012 1.901 7.56 7.56 0 00-.342 2.296c0 .748.096 1.463.287 2.147.201.683.501 1.29.903 1.818.41.52.925.934 1.544 1.244.62.31 1.349.465 2.188.465a5.826 5.826 0 003.555-1.176v1.723zm11.061.629l-6.44-6.822h-.054V209h-1.75v-20.727h1.75v13.248h.054l6.112-6.521h2.283l-6.563 6.768 7.082 7.232h-2.474z" fill="#333"/>
</svg>
